# xmcd CD database file
#
# Track frame offsets:
#	150
#	33968
#	63726
#	96297
#	131289
#	159285
#	200651
#
# Disc length: 3233 seconds
#
# Revision: 1
# Processed by: cddbd v1.5.2PL0 Copyright (c) Steve Scherf et al.
# Submitted via: CDex 1.70beta2
#
DISCID=590c9f07
DTITLE=Dahl - Vinding - Riel  -  In Our Own Sweet Way
DYEAR=2009
DGENRE=Jazz
TTITLE0=In Your Own Sweet Way
TTITLE1=Maria Gennem Torne Går
TTITLE2=It Could Happen To You
TTITLE3=Beautiful Friendship
TTITLE4=What Is This Thing Called Love
TTITLE5=Peace
TTITLE6=Night And Day
EXTD=YEAR: 2009
EXTT0=
EXTT1=
EXTT2=
EXTT3=
EXTT4=
EXTT5=
EXTT6=
PLAYORDER=
